# Blender v2.78 (sub 0) OBJ File: 'cubes.blend'
# www.blender.org
o Cube.016_Cube.018
v -0.607033 -0.392886 -4.378836
v -1.610551 -0.392886 -4.378836
v -2.614070 -0.392886 -4.378836
v -3.617589 -0.392886 -4.378836
v -3.617589 0.596820 -4.378836
v -2.614070 0.596820 -4.378836
v -1.610551 0.596820 -4.378836
v -0.607032 0.596820 -4.378836
v -0.607032 0.596820 -3.574515
v -1.610551 0.596820 -3.574515
v -1.610551 0.596820 -2.770194
v -2.614070 0.596820 -3.574515
v -2.614070 0.596820 -2.770194
v -3.617589 0.596820 -3.574515
v -3.617589 -0.392886 -3.574515
v -2.614070 -0.392886 -3.574515
v -2.614070 -0.392886 -2.770194
v -1.610551 -0.392886 -3.574515
v -1.610551 -0.392886 -2.770194
v -0.607033 -0.392886 -3.574515
vt 1.0000 0.0000
vt 0.0000 1.0000
vt 0.0000 0.0000
vt 1.0000 0.0000
vt 0.0000 1.0000
vt 0.0000 0.0000
vt 1.0000 0.0000
vt 0.0000 1.0000
vt 0.0000 0.0000
vt 1.0000 0.0000
vt 0.0000 1.0000
vt 0.0000 0.0000
vt 1.0000 0.0000
vt 0.0000 1.0000
vt 0.0000 0.0000
vt 0.0000 1.0000
vt 0.0000 0.0000
vt 1.0000 0.0000
vt 0.0000 0.0000
vt 1.0000 0.0000
vt 0.0000 1.0000
vt 0.0000 0.0000
vt 1.0000 0.0000
vt 0.0000 1.0000
vt 0.0000 0.0000
vt 1.0000 0.0000
vt 0.0000 1.0000
vt 0.0000 0.0000
vt 0.0000 0.0000
vt 1.0000 1.0000
vt 0.0000 1.0000
vt 1.0000 0.0000
vt 0.0000 1.0000
vt 1.0000 0.0000
vt 1.0000 0.0000
vt 1.0000 0.0000
vt 0.0000 1.0000
vt 0.0000 0.0000
vt 1.0000 0.0000
vt 1.0000 1.0000
vt 1.0000 1.0000
vt 1.0000 1.0000
vt 1.0000 1.0000
vt 1.0000 1.0000
vt 1.0000 1.0000
vt 1.0000 1.0000
vt 1.0000 1.0000
vt 1.0000 1.0000
vt 1.0000 1.0000
vt 1.0000 1.0000
vt 1.0000 1.0000
vt 1.0000 1.0000
vn 1.0000 0.0000 0.0000
vn 0.0000 1.0000 0.0000
vn -1.0000 0.0000 0.0000
vn 0.0000 -1.0000 0.0000
vn 0.0000 0.0000 -1.0000
vn 0.0000 0.0000 1.0000
s off
f 20/1/1 8/2/1 9/3/1
f 7/4/2 9/5/2 8/6/2
f 6/7/2 10/8/2 7/9/2
f 12/10/2 11/11/2 10/12/2
f 5/13/2 12/14/2 6/15/2
f 5/13/3 15/16/3 14/17/3
f 3/18/4 15/16/4 4/19/4
f 2/20/4 16/21/4 3/22/4
f 18/23/4 17/24/4 16/25/4
f 1/26/4 18/27/4 2/28/4
f 1/29/5 7/30/5 8/2/5
f 3/18/5 7/31/5 2/28/5
f 4/32/5 6/33/5 3/22/5
f 15/34/6 12/14/6 14/17/6
f 17/35/3 12/14/3 16/25/3
f 19/36/6 13/37/6 17/38/6
f 11/39/1 18/27/1 10/12/1
f 10/12/6 20/40/6 9/5/6
f 20/1/1 1/41/1 8/2/1
f 7/4/2 10/42/2 9/5/2
f 6/7/2 12/43/2 10/8/2
f 12/10/2 13/44/2 11/11/2
f 5/13/2 14/45/2 12/14/2
f 5/13/3 4/46/3 15/16/3
f 3/18/4 16/47/4 15/16/4
f 2/20/4 18/48/4 16/21/4
f 18/23/4 19/49/4 17/24/4
f 1/26/4 20/40/4 18/27/4
f 1/29/5 2/20/5 7/30/5
f 3/18/5 6/50/5 7/31/5
f 4/32/5 5/51/5 6/33/5
f 15/34/6 16/47/6 12/14/6
f 17/35/3 13/44/3 12/14/3
f 19/36/6 11/52/6 13/37/6
f 11/39/1 19/49/1 18/27/1
f 10/12/6 18/23/6 20/40/6
