# Blender v2.78 (sub 0) OBJ File: 'cubes.blend'
# www.blender.org
o Cube.005_Cube.007
v -5.624627 -0.392886 -1.161553
v -5.624627 -0.392886 -0.357232
v -5.624627 -0.392886 0.447089
v -5.624627 -0.392886 1.251410
v -5.624627 0.596820 1.251410
v -5.624627 0.596820 0.447089
v -5.624627 0.596820 -0.357232
v -5.624627 0.596820 -1.161553
v -3.617589 0.596820 -0.357232
v -3.617589 0.596820 0.447089
v -4.621108 0.596820 -1.161553
v -4.621108 0.596820 -0.357232
v -4.621108 0.596820 0.447089
v -4.621108 0.596820 1.251410
v -4.621108 -0.392886 -1.161553
v -4.621108 -0.392886 -0.357232
v -4.621108 -0.392886 0.447089
v -4.621108 -0.392886 1.251410
v -3.617589 -0.392886 -0.357232
v -3.617589 -0.392886 0.447089
vt 1.0000 0.0000
vt 0.0000 1.0000
vt 0.0000 0.0000
vt 0.0000 0.0000
vt 1.0000 1.0000
vt 0.0000 1.0000
vt 0.0000 0.0000
vt 1.0000 1.0000
vt 0.0000 1.0000
vt 0.0000 0.0000
vt 1.0000 1.0000
vt 0.0000 1.0000
vt 1.0000 0.0000
vt 0.0000 1.0000
vt 0.0000 0.0000
vt 1.0000 0.0000
vt 0.0000 1.0000
vt 0.0000 0.0000
vt 1.0000 0.0000
vt 0.0000 1.0000
vt 0.0000 0.0000
vt 1.0000 0.0000
vt 0.0000 1.0000
vt 0.0000 0.0000
vt 1.0000 0.0000
vt 0.0000 0.0000
vt 1.0000 0.0000
vt 1.0000 0.0000
vt 0.0000 1.0000
vt 1.0000 0.0000
vt 0.0000 1.0000
vt 1.0000 0.0000
vt 1.0000 0.0000
vt 0.0000 0.0000
vt 1.0000 0.0000
vt 0.0000 1.0000
vt 1.0000 0.0000
vt 0.0000 1.0000
vt 0.0000 0.0000
vt 1.0000 0.0000
vt 0.0000 1.0000
vt 1.0000 1.0000
vt 1.0000 1.0000
vt 1.0000 1.0000
vt 1.0000 1.0000
vt 1.0000 1.0000
vt 1.0000 1.0000
vt 1.0000 1.0000
vt 1.0000 1.0000
vt 1.0000 1.0000
vt 1.0000 1.0000
vt 1.0000 1.0000
vn 0.0000 1.0000 0.0000
vn 0.0000 -1.0000 0.0000
vn -1.0000 0.0000 0.0000
vn 0.0000 0.0000 1.0000
vn 1.0000 0.0000 0.0000
vn 0.0000 0.0000 -1.0000
s off
f 12/1/1 10/2/1 9/3/1
f 11/4/1 7/5/1 12/6/1
f 12/7/1 6/8/1 13/9/1
f 13/10/1 5/11/1 14/12/1
f 15/13/2 2/14/2 1/15/2
f 16/16/2 3/17/2 2/18/2
f 17/19/2 4/20/2 3/21/2
f 19/22/2 17/23/2 16/24/2
f 5/25/3 3/17/3 4/26/3
f 6/27/3 2/14/3 3/21/3
f 7/28/3 1/29/3 2/18/3
f 18/30/4 5/31/4 4/26/4
f 14/32/5 17/23/5 13/10/5
f 20/33/4 13/9/4 17/34/4
f 10/35/5 19/36/5 9/3/5
f 12/1/6 19/36/6 16/24/6
f 11/37/5 16/38/5 15/39/5
f 8/40/6 15/41/6 1/15/6
f 12/1/1 13/42/1 10/2/1
f 11/4/1 8/40/1 7/5/1
f 12/7/1 7/28/1 6/8/1
f 13/10/1 6/27/1 5/11/1
f 15/13/2 16/43/2 2/14/2
f 16/16/2 17/44/2 3/17/2
f 17/19/2 18/45/2 4/20/2
f 19/22/2 20/46/2 17/23/2
f 5/25/3 6/8/3 3/17/3
f 6/27/3 7/5/3 2/14/3
f 7/28/3 8/47/3 1/29/3
f 18/30/4 14/48/4 5/31/4
f 14/32/5 18/45/5 17/23/5
f 20/33/4 10/49/4 13/9/4
f 10/35/5 20/46/5 19/36/5
f 12/1/6 9/50/6 19/36/6
f 11/37/5 12/51/5 16/38/5
f 8/40/6 11/52/6 15/41/6
