# Blender v2.78 (sub 0) OBJ File: 'cubes.blend'
# www.blender.org
o Cube.007_Cube.009
v -2.614070 0.596820 0.447089
v -2.614070 0.596820 1.251410
v -3.617589 0.596820 0.447089
v -3.617589 0.596820 1.251410
v -3.617589 0.596820 2.055731
v -4.621108 0.596820 0.447089
v -4.621108 0.596820 1.251410
v -4.621108 0.596820 2.055731
v -4.621108 -0.392886 0.447089
v -4.621108 -0.392886 1.251410
v -4.621108 -0.392886 2.055731
v -3.617589 -0.392886 0.447089
v -3.617589 -0.392886 1.251410
v -3.617589 -0.392886 2.055731
v -2.614070 -0.392886 0.447089
v -2.614070 -0.392886 1.251410
vt 1.0000 0.0000
vt 0.0000 1.0000
vt 0.0000 0.0000
vt 1.0000 0.0000
vt 0.0000 1.0000
vt 0.0000 0.0000
vt 1.0000 0.0000
vt 0.0000 1.0000
vt 0.0000 0.0000
vt 1.0000 0.0000
vt 0.0000 1.0000
vt 0.0000 0.0000
vt 1.0000 0.0000
vt 0.0000 1.0000
vt 0.0000 0.0000
vt 1.0000 0.0000
vt 0.0000 1.0000
vt 0.0000 0.0000
vt 1.0000 0.0000
vt 0.0000 1.0000
vt 0.0000 0.0000
vt 1.0000 0.0000
vt 0.0000 1.0000
vt 1.0000 0.0000
vt 0.0000 0.0000
vt 0.0000 1.0000
vt 1.0000 0.0000
vt 1.0000 0.0000
vt 0.0000 0.0000
vt 1.0000 0.0000
vt 0.0000 1.0000
vt 1.0000 1.0000
vt 1.0000 1.0000
vt 1.0000 1.0000
vt 1.0000 1.0000
vt 1.0000 1.0000
vt 1.0000 1.0000
vt 1.0000 1.0000
vt 1.0000 1.0000
vt 1.0000 1.0000
vt 1.0000 1.0000
vt 1.0000 1.0000
vn 0.0000 1.0000 0.0000
vn 0.0000 -1.0000 0.0000
vn 0.0000 0.0000 1.0000
vn -1.0000 0.0000 0.0000
vn 0.0000 0.0000 -1.0000
vn 1.0000 0.0000 0.0000
s off
f 3/1/1 2/2/1 1/3/1
f 6/4/1 4/5/1 3/6/1
f 7/7/1 5/8/1 4/9/1
f 12/10/2 10/11/2 9/12/2
f 13/13/2 11/14/2 10/15/2
f 15/16/2 13/17/2 12/18/2
f 14/19/3 8/20/3 11/21/3
f 11/22/4 7/23/4 10/15/4
f 9/24/4 7/23/4 6/25/4
f 6/4/5 12/26/5 9/12/5
f 5/27/6 13/17/6 4/9/6
f 16/28/3 4/5/3 13/29/3
f 2/30/6 15/31/6 1/3/6
f 3/1/5 15/31/5 12/18/5
f 3/1/1 4/32/1 2/2/1
f 6/4/1 7/33/1 4/5/1
f 7/7/1 8/34/1 5/8/1
f 12/10/2 13/35/2 10/11/2
f 13/13/2 14/36/2 11/14/2
f 15/16/2 16/37/2 13/17/2
f 14/19/3 5/38/3 8/20/3
f 11/22/4 8/34/4 7/23/4
f 9/24/4 10/39/4 7/23/4
f 6/4/5 3/40/5 12/26/5
f 5/27/6 14/36/6 13/17/6
f 16/28/3 2/41/3 4/5/3
f 2/30/6 16/37/6 15/31/6
f 3/1/5 1/42/5 15/31/5
