# Blender v2.78 (sub 0) OBJ File: ''
# www.blender.org
v -4.621108 0.596820 -0.357232
v -3.617589 0.596820 0.447089
v -3.617589 0.596820 -0.357232
vt 1.0000 0.0000
vt 0.0000 1.0000
vt 0.0000 0.0000
vn 0.0000 1.0000 0.0000
s 1
f 1/1/1 2/2/1 3/3/1
v -3.617589 0.596820 -1.161553
v -2.614070 0.596820 -0.357232
v -2.614070 0.596820 -1.161553
v -4.621108 0.596820 -1.965873
v -3.617589 0.596820 -1.965873
v -4.621108 0.596820 -1.161553
v -3.617589 0.596820 -0.357232
v -3.617589 -0.392886 -1.965873
v -4.621108 -0.392886 -1.161553
v -4.621108 -0.392886 -1.965873
v -3.617589 -0.392886 -1.161553
v -4.621108 -0.392886 -0.357232
v -2.614070 -0.392886 -1.161553
v -3.617589 -0.392886 -0.357232
v -4.621108 0.596820 -0.357232
v -2.614070 -0.392886 -0.357232
vt 0.2177 0.6241
vt 0.1420 0.4888
vt 0.1701 0.4899
vt 0.3795 0.9999
vt 0.2568 0.6316
vt 0.0001 0.8522
vt 0.1089 0.5222
vt 0.2414 0.1547
vt 0.0355 0.0001
vt 0.3082 0.0001
vt 0.1870 0.1702
vt 0.0784 0.2012
vt 0.1669 0.2456
vt 0.1149 0.2213
vt 0.0796 0.5286
vt 0.1392 0.2547
vn 0.0000 1.0000 0.0000
vn 0.0000 -1.0000 -0.0000
vn 0.0000 -0.0000 1.0000
vn -1.0000 -0.0000 0.0000
vn 1.0000 0.0000 0.0000
vn 0.0000 0.0000 -1.0000
s 1
f 4/4/2 5/5/2 6/6/2
f 7/7/2 4/4/2 8/8/2
f 9/9/2 10/10/2 4/4/2
f 11/11/3 12/12/3 13/13/3
f 14/14/3 15/15/3 12/12/3
f 16/16/3 17/17/3 14/14/3
f 17/17/4 18/18/4 15/15/4
f 15/15/5 9/9/5 12/12/5
f 19/19/4 10/10/4 17/17/4
f 5/5/6 16/16/6 6/6/6
f 4/4/7 16/16/7 14/14/7
f 8/8/6 14/14/6 11/11/6
f 7/7/7 11/11/7 13/13/7
f 4/4/2 10/10/2 5/5/2
f 7/7/2 9/9/2 4/4/2
f 9/9/2 18/18/2 10/10/2
f 11/11/3 14/14/3 12/12/3
f 14/14/3 17/17/3 15/15/3
f 16/16/3 19/19/3 17/17/3
f 17/17/4 10/10/4 18/18/4
f 15/15/5 18/18/5 9/9/5
f 19/19/4 5/5/4 10/10/4
f 5/5/6 19/19/6 16/16/6
f 4/4/7 6/6/7 16/16/7
f 8/8/6 4/4/6 14/14/6
f 7/7/7 8/8/7 11/11/7
f 9/9/5 7/7/5 12/12/5
f 13/13/5 12/12/5 7/7/5
